<svg xmlns="http://www.w3.org/2000/svg" version="1.1" xmlns:xlink="http://www.w3.org/1999/xlink" xmlns:svgjs="http://svgjs.dev/svgjs" width="1500" height="1687" viewBox="0 0 1500 1687"><g transform="matrix(1,0,0,1,0.00011015625000254659,0)"><svg viewBox="0 0 320 360" data-background-color="#ffffff" preserveAspectRatio="xMidYMid meet" height="1687" width="1500" xmlns="http://www.w3.org/2000/svg" xmlns:xlink="http://www.w3.org/1999/xlink"><g id="tight-bounds" transform="matrix(1,0,0,1,0.000023499999997511622,0)"><svg viewBox="0 0 320 360" height="360" width="320"><g><svg></svg></g><g><svg viewBox="0 0 320 360" height="360" width="320"><g><path transform="translate(-74.99272,-51.79039) scale(4.65793,4.65793)" d="M20.6 59.9l0.8 1-0.4-1.3c-0.1-0.6-0.8 0.1-0.4 0.3M21.5 59.3c0.3 0.5 0.6 1 0.6 1.5 0 0.7 0.6 1 1.1 1.2-0.7-0.8-1.1-3-1.7-2.7M59.9 16.9c1.7 0 3.3-0.2 5.1 0.2 4.4 1.1 8.1 3.3 10.6 6.4l7 11.2c0.3 2.8 0.9 5.9 0.8 9.3 0.7 0 0.6-1 1.4-1.2-0.8 2-1.2 4.5-1.4 7.4-0.5-1.6 0-4 0.1-5.3-0.7 1.1-1.1 0.3-1.1-0.2 0.1-0.8-0.3-0.7-0.6-1-1.1-1-1.8-2.1-2.6-3.8 0.5-1.3 0.6-3.2-1-4.2-0.5-0.3-1.1-0.8-1.4-1.6-0.4-1.1-1.1-2.4-0.9-4.1 0.1-0.5-1.5 1.1-2.4 0.4-3.9-2.7-7.8-5.8-12.5-8.4-2.5 0-4.3-0.9-5.2-2-0.8-1-0.2-2.3 1-2.4 0.7 0 1.5-0.2 2.1 0.2 0.1-0.4 0.5-0.9 1-0.9M50 14.6l0.2 0.1c1 0.2 1.5 1.6 2.6 1.1 0 0.7 0.1 1.4-0.1 1.9-0.3 0.8-1.2 0.8-1.9 0.8-6.7-0.4-10.6 2.4-14.7 4.8-1.1 0.7-2.3 1.2-3.2 2.1-4.3 4-9 7.7-10.1 15.1l-0.9 8.2c-0.1 0.9-1.1 1.8-0.9 2.9l0.7 4.9c-0.7-0.7-1.1 0.2-0.9 0.6 0.1 0.3 0.5 1.3 1.1 0.4 0.8 1.5 1.6 4.4 2.7 5.7 3.4 4 7.8 7.6 11.4 11.2 0.9-0.2 1.6-0.2 1.8-0.8 0.3 0.6-0.3 1.2-0.8 1.3 1.6 1 3.4 1.9 5.8 2.1 3.1 0.2 6 0.7 8.7 1.4 1.4-0.4 2.8-0.6 4.3-0.7 0.5 0 0.8-0.8 1.4-1l0.1-1c0.6 0.9 0.5-0.3 0.1-0.9 0.7 0.6 0.9 1.1 1.2 1.5 0-0.3 0.8-1.4 0.8-0.1l0.2-1.3c0.3-0.2 0.4 1.1 0.7 0.2 0.3-0.9 0.9-0.2 1.5-0.5-0.2 0.4-0.1 1.2 0.6 0.7l0.8-0.7c0.5 1.2 1.3 0.7 1.7 0.5 4.4-2.8 8.8-6.1 13-9.4l-0.1 1.3 0.5-1.6c0.5 0.5 0.9 0.1 1.1-0.2 0.6-1 1.4-2 2.7-2.9-1.6 4.3-3.5 7.7-5.9 10.5l-1 1.2c0 0.7-0.2 1.6-1 1.7-0.4 0.1-1.2-0.2-1.8 0.4-0.3 0.4 0.7 1.2-0.1 0.6-0.7-0.5-1.4 0-2.2 0.2-0.6 0.2 0.4 0.8 0.6 1.2 0.2 0.4 0.4 0.8 0.3 1.3l-1.1-1.2c-1.3 0.7-2.1 2-3.2 3-0.5 0.4-0.3 1.1-0.3 1.7-0.7 0-1.5-0.2-1.9 0.2-0.3 0.4-0.2 1-0.2 1.6-1-0.1-1.1-1.6-2-1.3-0.9 0.2-1.9 0.3-2.7 0.8 0.6 1.2-1 0.5-0.8 0.7-1.5-0.9-2.8-1.6-4.4-1-3.4-1.1-7.6-0.6-10.7-0.2 0-0.5 0.1-1-0.1-1.1-0.2 0.5-0.8 0.3-0.7 0.3-1.9-1.3-3.8-2.1-5.8-3.2-1.8 0.2-3.5-0.7-4-1.2-1.4-1.3-3-0.6-4.3-0.9-2.8-0.7-3.8-3.6-4.1-5.6-0.2-1-1-1.4-1.3-1.3-1.3-4.2-3.3-8-4.9-11.9-0.4-1-0.3-2-0.3-3.1 0.5 0.2 1 0.1 0.9-0.6-0.5-3.3-1.7-5.8-3-8.2 0.7-3.4 0.8-7.4 2.4-10.4 1.4-2.7 4-4.1 5.8-6.4 0.6-0.8 0.6-1.9 1.2-2.6 2-2 4-4.1 6.2-5.9 1-0.8 2.2 0 3.7-0.3 0.5-1.8 2.5-3.4 4.4-2.9 0.8 0.2 2.4-1.9 2.9-2.1 0.8-0.3 0.4 0.8 0.4 1.5 1.9-1.5 4.5-2.3 6.9-3.2" fill="#ffc700" fill-rule="nonzero" stroke="none" stroke-width="1" stroke-linecap="butt" stroke-linejoin="miter" stroke-miterlimit="10" stroke-dasharray="" stroke-dashoffset="0" font-family="none" font-weight="none" font-size="none" text-anchor="none" style="mix-blend-mode: normal" data-fill-palette-color="tertiary"></path></g><g transform="matrix(1,0,0,1,64,124.27796897598117)"><svg viewBox="0 0 192 111.44406204803767" height="111.44406204803767" width="192"><g><svg viewBox="0 0 192 111.44406204803767" height="111.44406204803767" width="192"><g transform="matrix(1,0,0,1,0,81.61683049351909)"><svg viewBox="0 0 192 29.82723155451857" height="29.82723155451857" width="192"><g id="textblocktransform"><svg viewBox="0 0 192 29.82723155451857" height="29.82723155451857" width="192" id="textblock"><g><svg viewBox="0 0 192 17.01785265275333" height="17.01785265275333" width="192"><g transform="matrix(1,0,0,1,0,0)"><svg width="192" viewBox="2 -33.89 388.34 34.43" height="17.01785265275333" data-palette-color="#ffc700"><path d="M2.98-23.93L2.98-23.93Q2.98-27.69 5.86-30.1 8.74-32.52 12.55-32.52L12.55-32.52Q13.62-32.52 14.58-32.4 15.53-32.28 16.14-32.13 16.75-31.98 17.9-31.67 19.04-31.35 19.92-31.15L19.92-31.15Q20.51-28.56 20.51-24.17L20.51-24.17Q20.51-23.83 20.02-23.83L20.02-23.83Q18.85-23.83 18.75-24.32L18.75-24.32Q18.51-26.46 16.67-28.49 14.84-30.52 12.21-30.52L12.21-30.52Q9.28-30.52 8.08-29.05 6.88-27.59 6.88-25.44L6.88-25.44Q6.88-24.51 7.23-23.66 7.57-22.8 7.91-22.24 8.25-21.68 9.16-20.95 10.06-20.21 10.47-19.92 10.89-19.63 12.13-18.85 13.38-18.07 13.72-17.87L13.72-17.87Q13.96-17.72 15.43-16.82 16.89-15.92 17.43-15.55 17.97-15.19 19.12-14.23 20.26-13.28 20.78-12.55 21.29-11.82 21.75-10.72 22.22-9.62 22.22-8.45L22.22-8.45Q22.22-4.54 19.17-2.03 16.11 0.49 12.01 0.49L12.01 0.49Q10.84 0.49 9.52 0.32 8.2 0.15 7.32-0.02 6.45-0.2 5.1-0.51 3.76-0.83 3.22-0.93L3.22-0.93Q2-6.93 2-8.69L2-8.69Q2-8.98 2.78-8.98L2.78-8.98Q3.66-8.98 4-8.54L4-8.54Q5.66-1.51 12.11-1.51L12.11-1.51Q14.55-1.51 16.26-2.98 17.97-4.44 17.97-7.13L17.97-7.13Q17.97-8.11 17.68-8.94 17.38-9.77 17.07-10.3 16.75-10.84 15.94-11.45 15.14-12.06 14.7-12.35 14.26-12.65 13.09-13.28 11.91-13.92 11.47-14.16L11.47-14.16Q10.06-14.99 9.5-15.33 8.94-15.67 7.64-16.53 6.35-17.38 5.76-18.04 5.18-18.7 4.39-19.65 3.61-20.61 3.3-21.68 2.98-22.75 2.98-23.93ZM45.21-16.65L45.21-16.65 45.21-6.88Q45.21-4.79 45.55-3.17L45.55-3.17Q45.65-2.83 46.09-2.64 46.53-2.44 47.02-2.39 47.51-2.34 48-2.34L48-2.34 48.44-2.29Q48.58-2.25 48.58-1.76L48.58-1.76Q48.58-1.61 48.46-1.29 48.34-0.98 48.19-0.98L48.19-0.98Q47.46-0.93 46.56-0.78 45.65-0.63 44.87-0.44 44.09-0.24 43.41-0.05 42.72 0.15 42.33 0.29L42.33 0.29 41.89 0.39Q41.5 0.39 41.5-0.39L41.5-0.39 41.5-2.88 41.4-3.13Q38.18 0.34 35.01 0.34L35.01 0.34Q33.2 0.34 31.91-0.56 30.61-1.46 30-2.95 29.39-4.44 29.15-5.83 28.9-7.23 28.9-8.74L28.9-8.74 28.9-14.89Q28.9-16.8 28.22-17.53L28.22-17.53Q27.73-18.12 27.02-18.33 26.32-18.55 25.85-18.55 25.39-18.55 25.39-18.65L25.39-18.65Q25.39-19.82 25.68-19.87L25.68-19.87Q30.86-20.65 32.42-21.14L32.42-21.14Q32.47-21.14 32.57-21.17 32.66-21.19 32.66-21.19L32.66-21.19Q32.86-21.19 32.91-20.78 32.96-20.36 32.91-20.17L32.91-20.17Q32.61-17.82 32.61-16.55L32.61-16.55 32.61-9.96Q32.61-6.2 33.74-4.42 34.86-2.64 37.4-2.64L37.4-2.64Q38.86-2.64 40.18-3.78 41.5-4.93 41.5-5.76L41.5-5.76 41.5-14.89Q41.5-16.8 40.82-17.53L40.82-17.53Q40.33-18.12 39.62-18.33 38.91-18.55 38.45-18.55 37.99-18.55 37.99-18.65L37.99-18.65Q37.99-19.82 38.28-19.87L38.28-19.87Q43.45-20.65 45.02-21.14L45.02-21.14Q45.07-21.14 45.16-21.17 45.26-21.19 45.26-21.19L45.26-21.19Q45.46-21.19 45.51-20.78 45.55-20.36 45.51-20.17L45.51-20.17Q45.21-17.82 45.21-16.65ZM64.94-21.39L64.94-21.39Q68.35-21.39 69.72-18.95 71.09-16.5 71.09-11.04L71.09-11.04 71.09-6.59Q71.09-3.76 71.48-2.25L71.48-2.25Q71.58-1.9 72.75-1.59 73.92-1.27 74.41-1.27L74.41-1.27Q74.56-1.27 74.6-0.68 74.65-0.1 74.56 0.15L74.56 0.15Q69.67-0.1 69.33-0.1L69.33-0.1Q69.23-0.1 64.2 0.15L64.2 0.15Q64.01-0.05 64.01-0.66 64.01-1.27 64.2-1.27L64.2-1.27Q64.79-1.27 65.84-1.59 66.89-1.9 66.99-2.25L66.99-2.25Q67.33-3.66 67.33-5.66L67.33-5.66 67.33-10.55Q67.33-15.09 66.16-16.75 64.99-18.41 62.35-18.41L62.35-18.41Q60.79-18.41 59.35-17.26 57.91-16.11 57.91-15.19L57.91-15.19 57.91-6.59Q57.91-3.76 58.3-2.25L58.3-2.25Q58.39-1.9 59.57-1.59 60.74-1.27 61.23-1.27L61.23-1.27Q61.37-1.27 61.42-0.68 61.47-0.1 61.37 0.15L61.37 0.15Q56.49-0.1 56.15-0.1L56.15-0.1Q55.85-0.1 50.83 0.15L50.83 0.15Q50.63-0.05 50.63-0.66 50.63-1.27 50.83-1.27L50.83-1.27Q51.41-1.27 52.56-1.59 53.71-1.9 53.8-2.25L53.8-2.25Q54.15-3.66 54.15-5.66L54.15-5.66 54.15-14.89Q54.15-16.8 53.46-17.53L53.46-17.53Q52.97-18.12 52.27-18.33 51.56-18.55 51.09-18.55 50.63-18.55 50.63-18.65L50.63-18.65Q50.63-19.82 50.92-19.87L50.92-19.87Q56.1-20.65 57.66-21.14L57.66-21.14Q57.71-21.14 57.81-21.17 57.91-21.19 57.91-21.19L57.91-21.19Q58.1-21.19 58.15-20.78 58.2-20.36 58.15-20.17L58.15-20.17Q57.95-18.8 57.95-18.21L57.95-18.21Q57.95-18.02 58.05-18.02L58.05-18.02Q58.1-18.02 58.2-18.12L58.2-18.12Q59.32-19.29 61.25-20.34 63.18-21.39 64.94-21.39ZM93.74-3.15Q94.57-2.44 95.89-2.44 97.21-2.44 98.43-3.25 99.65-4.05 99.65-4.88L99.65-4.88 99.65-9.91Q99.26-9.72 97.74-9.23 96.23-8.74 95.38-8.37 94.52-8.01 93.72-7.15 92.91-6.3 92.91-5.18L92.91-5.18Q92.91-3.86 93.74-3.15ZM98.33-21.29L98.33-21.29Q101.02-21.29 102.19-20 103.36-18.7 103.36-15.82L103.36-15.82 103.36-4.54Q103.36-3.52 103.9-2.83 104.43-2.15 105.36-2.15L105.36-2.15Q106.04-2.15 107.07-2.83L107.07-2.83Q107.27-2.83 107.27-2.44L107.27-2.44Q107.27-1.81 107.02-1.42L107.02-1.42Q105.02 0.29 103.6 0.29L103.6 0.29Q102.48 0.29 101.45-0.63 100.43-1.56 100.04-2.59L100.04-2.59Q99.99-2.59 99.67-2.27 99.36-1.95 98.82-1.54 98.28-1.12 97.57-0.68 96.87-0.24 95.91 0.05 94.96 0.34 93.98 0.34L93.98 0.34Q91.74 0.34 90.27-0.85 88.81-2.05 88.81-4.44L88.81-4.44Q88.81-5.52 89.35-6.47 89.88-7.42 90.62-8.03 91.35-8.64 92.62-9.28 93.89-9.91 94.79-10.23 95.69-10.55 97.16-11.04 98.62-11.52 99.21-11.77L99.21-11.77Q99.65-11.91 99.65-12.5L99.65-12.5 99.65-16.16Q99.65-17.72 98.67-18.58 97.7-19.43 96.33-19.43L96.33-19.43Q94.86-19.43 93.89-18.43 92.91-17.43 92.91-15.82L92.91-15.82Q92.91-14.11 90.91-14.11L90.91-14.11Q89.54-14.11 89-15.04L89-15.04Q89-17.14 92.08-19.21 95.16-21.29 98.33-21.29ZM123.28-21.39L123.28-21.39Q126.7-21.39 128.06-18.95 129.43-16.5 129.43-11.04L129.43-11.04 129.43-6.59Q129.43-3.76 129.82-2.25L129.82-2.25Q129.92-1.9 131.09-1.59 132.26-1.27 132.75-1.27L132.75-1.27Q132.9-1.27 132.95-0.68 133-0.1 132.9 0.15L132.9 0.15Q128.01-0.1 127.67-0.1L127.67-0.1Q127.58-0.1 122.55 0.15L122.55 0.15Q122.35-0.05 122.35-0.66 122.35-1.27 122.55-1.27L122.55-1.27Q123.13-1.27 124.18-1.59 125.23-1.9 125.33-2.25L125.33-2.25Q125.67-3.66 125.67-5.66L125.67-5.66 125.67-10.55Q125.67-15.09 124.5-16.75 123.33-18.41 120.69-18.41L120.69-18.41Q119.13-18.41 117.69-17.26 116.25-16.11 116.25-15.19L116.25-15.19 116.25-6.59Q116.25-3.76 116.64-2.25L116.64-2.25Q116.74-1.9 117.91-1.59 119.08-1.27 119.57-1.27L119.57-1.27Q119.71-1.27 119.76-0.68 119.81-0.1 119.71 0.15L119.71 0.15Q114.83-0.1 114.49-0.1L114.49-0.1Q114.2-0.1 109.17 0.15L109.17 0.15Q108.97-0.05 108.97-0.66 108.97-1.27 109.17-1.27L109.17-1.27Q109.75-1.27 110.9-1.59 112.05-1.9 112.15-2.25L112.15-2.25Q112.49-3.66 112.49-5.66L112.49-5.66 112.49-14.89Q112.49-16.8 111.8-17.53L111.8-17.53Q111.32-18.12 110.61-18.33 109.9-18.55 109.44-18.55 108.97-18.55 108.97-18.65L108.97-18.65Q108.97-19.82 109.26-19.87L109.26-19.87Q114.44-20.65 116-21.14L116-21.14Q116.05-21.14 116.15-21.17 116.25-21.19 116.25-21.19L116.25-21.19Q116.44-21.19 116.49-20.78 116.54-20.36 116.49-20.17L116.49-20.17Q116.3-18.8 116.3-18.21L116.3-18.21Q116.3-18.02 116.39-18.02L116.39-18.02Q116.44-18.02 116.54-18.12L116.54-18.12Q117.66-19.29 119.59-20.34 121.52-21.39 123.28-21.39ZM146.18-19.43L146.18-19.43Q143.34-19.43 141.73-16.89 140.12-14.36 140.12-10.99L140.12-10.99Q140.12-7.42 142.03-4.81 143.93-2.2 147.3-2.2L147.3-2.2Q148.96-2.2 149.89-2.95 150.82-3.71 150.82-4.98L150.82-4.98 150.82-16.6Q150.82-17.63 149.72-18.53 148.62-19.43 146.18-19.43ZM146.81-21.48L146.81-21.48Q148.91-21.48 150.47-20.65L150.47-20.65Q150.82-20.65 150.82-21.53L150.82-21.53 150.82-26.81Q150.82-28.47 150.52-29.93L150.52-29.93Q150.28-30.71 148.03-30.71L148.03-30.71 147.59-30.71Q147.3-30.71 147.3-31.25L147.3-31.25Q147.3-32.03 147.59-32.03L147.59-32.03Q149.06-32.18 150.3-32.42 151.55-32.67 152.26-32.91 152.96-33.15 153.45-33.37 153.94-33.59 154.18-33.74L154.18-33.74 154.38-33.89 154.48-33.89Q154.67-33.89 154.87-33.62 155.06-33.35 155.11-33.11L155.11-33.11Q154.57-31.54 154.57-28.86L154.57-28.86 154.57-6.88Q154.57-4.54 154.87-3.17L154.87-3.17Q154.97-2.83 155.4-2.64 155.84-2.44 156.31-2.39 156.77-2.34 157.21-2.34L157.21-2.34 157.65-2.29Q157.8-2.25 157.8-1.71L157.8-1.71Q157.8-0.98 157.5-0.98L157.5-0.98Q156.77-0.93 155.87-0.78 154.97-0.63 154.16-0.46 153.35-0.29 152.67-0.12 151.99 0.05 151.55 0.2L151.55 0.2 151.11 0.29Q150.82 0.29 150.82-0.54L150.82-0.54 150.82-1.12Q150.82-1.42 150.62-1.32L150.62-1.32Q147.89 0.2 145.44 0.2L145.44 0.2Q141.39 0.2 138.66-2.69 135.92-5.57 135.92-9.57L135.92-9.57Q135.92-14.31 139.27-17.9 142.61-21.48 146.81-21.48ZM172.49-23.93L172.49-23.93Q172.49-27.69 175.37-30.1 178.25-32.52 182.06-32.52L182.06-32.52Q183.13-32.52 184.09-32.4 185.04-32.28 185.65-32.13 186.26-31.98 187.41-31.67 188.55-31.35 189.43-31.15L189.43-31.15Q190.02-28.56 190.02-24.17L190.02-24.17Q190.02-23.83 189.53-23.83L189.53-23.83Q188.36-23.83 188.26-24.32L188.26-24.32Q188.02-26.46 186.19-28.49 184.36-30.52 181.72-30.52L181.72-30.52Q178.79-30.52 177.59-29.05 176.4-27.59 176.4-25.44L176.4-25.44Q176.4-24.51 176.74-23.66 177.08-22.8 177.42-22.24 177.76-21.68 178.67-20.95 179.57-20.21 179.98-19.92 180.4-19.63 181.65-18.85 182.89-18.07 183.23-17.87L183.23-17.87Q183.48-17.72 184.94-16.82 186.41-15.92 186.94-15.55 187.48-15.19 188.63-14.23 189.77-13.28 190.29-12.55 190.8-11.82 191.26-10.72 191.73-9.62 191.73-8.45L191.73-8.45Q191.73-4.54 188.68-2.03 185.62 0.49 181.52 0.49L181.52 0.49Q180.35 0.49 179.03 0.32 177.71 0.15 176.84-0.02 175.96-0.2 174.61-0.51 173.27-0.83 172.73-0.93L172.73-0.93Q171.51-6.93 171.51-8.69L171.51-8.69Q171.51-8.98 172.29-8.98L172.29-8.98Q173.17-8.98 173.52-8.54L173.52-8.54Q175.18-1.51 181.62-1.51L181.62-1.51Q184.06-1.51 185.77-2.98 187.48-4.44 187.48-7.13L187.48-7.13Q187.48-8.11 187.19-8.94 186.89-9.77 186.58-10.3 186.26-10.84 185.45-11.45 184.65-12.06 184.21-12.35 183.77-12.65 182.6-13.28 181.43-13.92 180.99-14.16L180.99-14.16Q179.57-14.99 179.01-15.33 178.45-15.67 177.15-16.53 175.86-17.38 175.27-18.04 174.69-18.7 173.91-19.65 173.12-20.61 172.81-21.68 172.49-22.75 172.49-23.93ZM204.47-19.48L204.47-19.48Q201.93-19.48 200.59-17.31 199.25-15.14 199.25-13.72L199.25-13.72Q199.25-13.38 199.54-13.38L199.54-13.38 209.06-13.38Q209.3-13.38 209.3-13.87L209.3-13.87Q209.3-15.43 207.99-17.46 206.67-19.48 204.47-19.48ZM204.96-21.29L204.96-21.29Q207.2-21.29 208.91-20.43 210.62-19.58 211.53-18.24 212.43-16.89 212.84-15.5 213.26-14.11 213.26-12.74L213.26-12.74Q213.26-11.77 212.97-11.55 212.67-11.33 211.84-11.33L211.84-11.33 199.54-11.33Q199.15-11.33 199.15-11.08L199.15-11.08Q199.15-8.01 201-5.42 202.86-2.83 206.37-2.83L206.37-2.83Q207.4-2.83 208.33-3.03 209.25-3.22 209.91-3.49 210.57-3.76 211.04-4.03 211.5-4.3 211.84-4.54L211.84-4.54 212.18-4.79Q212.48-4.79 212.48-4.15L212.48-4.15Q212.48-3.76 212.18-3.27L212.18-3.27Q211.21-1.9 209.3-0.81 207.4 0.29 205.15 0.29L205.15 0.29Q201.1 0.29 198.2-2.76 195.29-5.81 195.29-10.21L195.29-10.21Q195.29-15.33 198.05-18.31 200.81-21.29 204.96-21.29ZM221.31-3.15Q222.14-2.44 223.46-2.44 224.78-2.44 226-3.25 227.22-4.05 227.22-4.88L227.22-4.88 227.22-9.91Q226.83-9.72 225.32-9.23 223.8-8.74 222.95-8.37 222.09-8.01 221.29-7.15 220.48-6.3 220.48-5.18L220.48-5.18Q220.48-3.86 221.31-3.15ZM225.9-21.29L225.9-21.29Q228.59-21.29 229.76-20 230.93-18.7 230.93-15.82L230.93-15.82 230.93-4.54Q230.93-3.52 231.47-2.83 232.01-2.15 232.93-2.15L232.93-2.15Q233.62-2.15 234.64-2.83L234.64-2.83Q234.84-2.83 234.84-2.44L234.84-2.44Q234.84-1.81 234.59-1.42L234.59-1.42Q232.59 0.29 231.18 0.29L231.18 0.29Q230.05 0.29 229.03-0.63 228-1.56 227.61-2.59L227.61-2.59Q227.56-2.59 227.25-2.27 226.93-1.95 226.39-1.54 225.85-1.12 225.15-0.68 224.44-0.24 223.49 0.05 222.53 0.34 221.56 0.34L221.56 0.34Q219.31 0.34 217.85-0.85 216.38-2.05 216.38-4.44L216.38-4.44Q216.38-5.52 216.92-6.47 217.46-7.42 218.19-8.03 218.92-8.64 220.19-9.28 221.46-9.91 222.36-10.23 223.27-10.55 224.73-11.04 226.2-11.52 226.78-11.77L226.78-11.77Q227.22-11.91 227.22-12.5L227.22-12.5 227.22-16.16Q227.22-17.72 226.24-18.58 225.27-19.43 223.9-19.43L223.9-19.43Q222.44-19.43 221.46-18.43 220.48-17.43 220.48-15.82L220.48-15.82Q220.48-14.11 218.48-14.11L218.48-14.11Q217.11-14.11 216.58-15.04L216.58-15.04Q216.58-17.14 219.65-19.21 222.73-21.29 225.9-21.29ZM260.32-30.08L260.32-30.08Q258.12-30.08 256.9-29.74L256.9-29.74Q256.71-29.69 256.59-29.37 256.46-29.05 256.39-27.91 256.32-26.76 256.32-24.37L256.32-24.37 256.32-18.46Q256.32-17.04 260.57-17.04L260.57-17.04 261.79-17.04Q263.5-17.04 265.33-18.75 267.16-20.46 267.16-23.29L267.16-23.29Q267.16-30.08 260.32-30.08ZM261.1-32.23L261.1-32.23Q262.76-32.23 264.47-31.74 266.18-31.25 267.84-30.27 269.5-29.3 270.58-27.49 271.65-25.68 271.65-23.29L271.65-23.29Q271.65-21.24 270.11-18.99 268.57-16.75 265.94-15.53L265.94-15.53Q265.45-15.33 265.64-15.04L265.64-15.04Q268.09-9.91 271.26-6.45L271.26-6.45Q275.95-1.32 278.88-1.32L278.88-1.32Q279.02-1.03 279.02-0.63L279.02-0.63Q279.02-0.2 278.88 0.1L278.88 0.1Q278.34 0.24 277.56 0.24L277.56 0.24Q270.72 0.24 265.69-6.79L265.69-6.79Q264.91-7.86 263.91-9.35 262.91-10.84 262.45-11.5 261.98-12.16 261.37-12.94 260.76-13.72 260.3-14.11 259.83-14.5 259.3-14.75L259.3-14.75Q258.76-14.94 257.49-14.94L257.49-14.94Q257.1-14.94 256.9-14.92 256.71-14.89 256.51-14.7 256.32-14.5 256.32-14.11L256.32-14.11 256.32-6.93Q256.32-3.66 256.71-2.69L256.71-2.69Q256.95-2.05 258.44-1.66 259.93-1.27 260.57-1.27L260.57-1.27Q260.76-1.27 260.76-0.59L260.76-0.59Q260.76-0.15 260.66 0.15L260.66 0.15Q255.78-0.1 254.32-0.1L254.32-0.1 248.36 0.15Q248.21 0 248.21-0.73L248.21-0.73Q248.21-1.37 248.36-1.37L248.36-1.37Q249.04-1.37 250.26-1.66 251.48-1.95 251.73-2.39L251.73-2.39Q252.07-2.98 252.07-6.98L252.07-6.98 252.07-25.44Q252.07-28.32 251.73-29.64L251.73-29.64Q251.58-30.03 250.29-30.37 248.99-30.71 248.36-30.71L248.36-30.71Q248.16-30.71 248.16-31.3L248.16-31.3Q248.16-31.93 248.36-32.13L248.36-32.13 254.22-32.03Q255.68-32.03 257.68-32.13 259.69-32.23 261.1-32.23ZM289.52-19.48L289.52-19.48Q286.98-19.48 285.64-17.31 284.29-15.14 284.29-13.72L284.29-13.72Q284.29-13.38 284.59-13.38L284.59-13.38 294.11-13.38Q294.35-13.38 294.35-13.87L294.35-13.87Q294.35-15.43 293.03-17.46 291.72-19.48 289.52-19.48ZM290.01-21.29L290.01-21.29Q292.25-21.29 293.96-20.43 295.67-19.58 296.57-18.24 297.48-16.89 297.89-15.5 298.31-14.11 298.31-12.74L298.31-12.74Q298.31-11.77 298.01-11.55 297.72-11.33 296.89-11.33L296.89-11.33 284.59-11.33Q284.2-11.33 284.2-11.08L284.2-11.08Q284.2-8.01 286.05-5.42 287.91-2.83 291.42-2.83L291.42-2.83Q292.45-2.83 293.38-3.03 294.3-3.22 294.96-3.49 295.62-3.76 296.09-4.03 296.55-4.3 296.89-4.54L296.89-4.54 297.23-4.79Q297.53-4.79 297.53-4.15L297.53-4.15Q297.53-3.76 297.23-3.27L297.23-3.27Q296.26-1.9 294.35-0.81 292.45 0.29 290.2 0.29L290.2 0.29Q286.15 0.29 283.24-2.76 280.34-5.81 280.34-10.21L280.34-10.21Q280.34-15.33 283.1-18.31 285.86-21.29 290.01-21.29ZM315.25-21.39L315.25-21.39Q318.67-21.39 320.03-18.95 321.4-16.5 321.4-11.04L321.4-11.04 321.4-6.59Q321.4-3.76 321.79-2.25L321.79-2.25Q321.89-1.9 323.06-1.59 324.23-1.27 324.72-1.27L324.72-1.27Q324.87-1.27 324.92-0.68 324.97-0.1 324.87 0.15L324.87 0.15Q319.98-0.1 319.64-0.1L319.64-0.1Q319.55-0.1 314.52 0.15L314.52 0.15Q314.32-0.05 314.32-0.66 314.32-1.27 314.52-1.27L314.52-1.27Q315.1-1.27 316.15-1.59 317.2-1.9 317.3-2.25L317.3-2.25Q317.64-3.66 317.64-5.66L317.64-5.66 317.64-10.55Q317.64-15.09 316.47-16.75 315.3-18.41 312.66-18.41L312.66-18.41Q311.1-18.41 309.66-17.26 308.22-16.11 308.22-15.19L308.22-15.19 308.22-6.59Q308.22-3.76 308.61-2.25L308.61-2.25Q308.71-1.9 309.88-1.59 311.05-1.27 311.54-1.27L311.54-1.27Q311.68-1.27 311.73-0.68 311.78-0.1 311.68 0.15L311.68 0.15Q306.8-0.1 306.46-0.1L306.46-0.1Q306.17-0.1 301.14 0.15L301.14 0.15Q300.94-0.05 300.94-0.66 300.94-1.27 301.14-1.27L301.14-1.27Q301.72-1.27 302.87-1.59 304.02-1.9 304.12-2.25L304.12-2.25Q304.46-3.66 304.46-5.66L304.46-5.66 304.46-14.89Q304.46-16.8 303.77-17.53L303.77-17.53Q303.29-18.12 302.58-18.33 301.87-18.55 301.41-18.55 300.94-18.55 300.94-18.65L300.94-18.65Q300.94-19.82 301.23-19.87L301.23-19.87Q306.41-20.65 307.97-21.14L307.97-21.14Q308.02-21.14 308.12-21.17 308.22-21.19 308.22-21.19L308.22-21.19Q308.41-21.19 308.46-20.78 308.51-20.36 308.46-20.17L308.46-20.17Q308.27-18.8 308.27-18.21L308.27-18.21Q308.27-18.02 308.36-18.02L308.36-18.02Q308.41-18.02 308.51-18.12L308.51-18.12Q309.63-19.29 311.56-20.34 313.49-21.39 315.25-21.39ZM329.94-5.86L329.94-18.26 327.11-18.26Q326.87-18.26 326.87-19.29L326.87-19.29Q326.87-19.58 326.92-19.63L326.92-19.63Q328.33-20.26 329.99-22.22L329.99-22.22Q330.53-22.85 331.04-23.66 331.55-24.46 331.9-25.05 332.24-25.63 332.24-25.68L332.24-25.68Q333.7-25.68 333.7-25.44L333.7-25.44 333.7-20.61Q334.97-20.61 337.56-20.58 340.15-20.56 340.29-20.56L340.29-20.56Q340.69-20.56 340.69-20.12L340.69-20.12Q340.69-19.24 340.2-18.26L340.2-18.26 333.7-18.26 333.7-6.3Q333.7-4.35 334.7-3.17 335.7-2 337.32-2L337.32-2Q338.78-2 340.34-2.93L340.34-2.93Q340.49-3.03 340.78-2.51 341.08-2 341.03-1.95L341.03-1.95Q340.29-1.17 338.78-0.42 337.27 0.34 335.66 0.34L335.66 0.34Q333.21 0.34 331.58-1.27 329.94-2.88 329.94-5.86L329.94-5.86ZM348.2-3.15Q349.03-2.44 350.35-2.44 351.67-2.44 352.89-3.25 354.11-4.05 354.11-4.88L354.11-4.88 354.11-9.91Q353.72-9.72 352.21-9.23 350.69-8.74 349.84-8.37 348.98-8.01 348.18-7.15 347.37-6.3 347.37-5.18L347.37-5.18Q347.37-3.86 348.2-3.15ZM352.79-21.29L352.79-21.29Q355.48-21.29 356.65-20 357.82-18.7 357.82-15.82L357.82-15.82 357.82-4.54Q357.82-3.52 358.36-2.83 358.9-2.15 359.82-2.15L359.82-2.15Q360.51-2.15 361.53-2.83L361.53-2.83Q361.73-2.83 361.73-2.44L361.73-2.44Q361.73-1.81 361.48-1.42L361.48-1.42Q359.48 0.29 358.07 0.29L358.07 0.29Q356.94 0.29 355.92-0.63 354.89-1.56 354.5-2.59L354.5-2.59Q354.45-2.59 354.13-2.27 353.82-1.95 353.28-1.54 352.74-1.12 352.04-0.68 351.33-0.24 350.38 0.05 349.42 0.34 348.45 0.34L348.45 0.34Q346.2 0.34 344.74-0.85 343.27-2.05 343.27-4.44L343.27-4.44Q343.27-5.52 343.81-6.47 344.34-7.42 345.08-8.03 345.81-8.64 347.08-9.28 348.35-9.91 349.25-10.23 350.16-10.55 351.62-11.04 353.09-11.52 353.67-11.77L353.67-11.77Q354.11-11.91 354.11-12.5L354.11-12.5 354.11-16.16Q354.11-17.72 353.13-18.58 352.16-19.43 350.79-19.43L350.79-19.43Q349.33-19.43 348.35-18.43 347.37-17.43 347.37-15.82L347.37-15.82Q347.37-14.11 345.37-14.11L345.37-14.11Q344-14.11 343.47-15.04L343.47-15.04Q343.47-17.14 346.54-19.21 349.62-21.29 352.79-21.29ZM366.27-5.66L366.27-5.66 366.27-26.81Q366.27-28.47 365.97-29.93L365.97-29.93Q365.73-30.71 363.48-30.71L363.48-30.71 363.04-30.71Q362.75-30.71 362.75-31.25L362.75-31.25Q362.75-32.03 363.04-32.03L363.04-32.03Q364.51-32.18 365.75-32.42 367-32.67 367.71-32.91 368.41-33.15 368.9-33.37 369.39-33.59 369.64-33.74L369.64-33.74 369.83-33.89 369.93-33.89Q370.12-33.89 370.32-33.62 370.51-33.35 370.56-33.11L370.56-33.11Q370.03-31.54 370.03-28.86L370.03-28.86 370.03-6.59Q370.03-3.76 370.42-2.25L370.42-2.25Q370.51-1.9 371.69-1.59 372.86-1.27 373.35-1.27L373.35-1.27Q373.49-1.27 373.54-0.68 373.59-0.1 373.49 0.15L373.49 0.15Q368.61-0.1 368.27-0.1L368.27-0.1Q367.98-0.1 362.95 0.15L362.95 0.15Q362.75-0.05 362.75-0.66 362.75-1.27 362.95-1.27L362.95-1.27Q363.53-1.27 364.68-1.59 365.83-1.9 365.92-2.25L365.92-2.25Q366.27-3.66 366.27-5.66ZM383.6-21.34L383.6-21.34Q384.67-21.34 386.31-21.07 387.94-20.8 388.58-20.7L388.58-20.7Q389.07-18.46 389.16-15.72L389.16-15.72Q389.16-15.48 388.53-15.48L388.53-15.48Q387.85-15.48 387.8-15.82L387.8-15.82Q387.55-17.19 386.41-18.41 385.26-19.63 383.79-19.63L383.79-19.63Q380.28-19.63 380.28-16.75L380.28-16.75Q380.28-16.02 380.47-15.45 380.67-14.89 381.23-14.38 381.79-13.87 382.08-13.65 382.38-13.43 383.38-12.87 384.38-12.3 384.62-12.16L384.62-12.16Q384.82-12.06 385.77-11.5 386.72-10.94 387.11-10.69 387.5-10.45 388.26-9.86 389.02-9.28 389.36-8.81 389.7-8.35 390.02-7.64 390.34-6.93 390.34-6.2L390.34-6.2Q390.34-3.32 388.09-1.39 385.84 0.54 382.82 0.54L382.82 0.54Q381.79 0.54 380.94 0.42 380.08 0.29 378.91 0 377.74-0.29 377.1-0.39L377.1-0.39Q376.81-1.17 376.54-2.83 376.27-4.49 376.27-5.47L376.27-5.47Q376.66-5.76 376.86-5.76L376.86-5.76Q377.59-5.76 377.64-5.47L377.64-5.47Q377.93-4 379.47-2.61 381.01-1.22 382.82-1.22L382.82-1.22Q384.38-1.22 385.38-2.08 386.38-2.93 386.38-4.54L386.38-4.54Q386.38-5.37 386.06-6.08 385.75-6.79 385.04-7.35 384.33-7.91 383.72-8.28 383.11-8.64 381.99-9.23 380.86-9.81 380.33-10.16L380.33-10.16Q376.52-12.35 376.52-15.38L376.52-15.38Q376.52-18.02 378.64-19.68 380.77-21.34 383.6-21.34Z" opacity="1" transform="matrix(1,0,0,1,0,0)" fill="#ffc700" class="wordmark-text-0" data-fill-palette-color="primary" id="text-0"></path></svg></g></svg></g><g transform="matrix(1,0,0,1,36.672,21.035359235604727)"><svg viewBox="0 0 118.656 8.791872318913844" height="8.791872318913844" width="118.656"><g transform="matrix(1,0,0,1,0,0)"><svg width="118.656" viewBox="2.35 -37.75 692.28 51.3" height="8.791872318913844" data-palette-color="#ffc700"><path d="M19.35 0.8L19.35 0.8Q14.35 0.8 10.5-1.3 6.65-3.4 4.5-7.35 2.35-11.3 2.35-16.75L2.35-16.75Q2.35-20.3 3.43-23.68 4.5-27.05 6.68-29.8 8.85-32.55 12.13-34.18 15.4-35.8 19.75-35.8L19.75-35.8Q21.55-35.8 23.4-35.48 25.25-35.15 26.98-34.52 28.7-33.9 30.1-33.05L30.1-33.05 29.9-35.45 32.65-35.45 32.65-24 30.85-24Q30.65-27.15 29.18-29.33 27.7-31.5 25.35-32.65 23-33.8 20.1-33.8L20.1-33.8Q17.45-33.8 15.13-32.63 12.8-31.45 11.03-29.33 9.25-27.2 8.25-24.3 7.25-21.4 7.25-17.9L7.25-17.9Q7.25-13.2 8.95-9.5 10.65-5.8 13.68-3.7 16.7-1.6 20.65-1.6L20.65-1.6Q22-1.6 23.48-1.85 24.95-2.1 26.43-2.68 27.9-3.25 29.2-4.1L29.2-4.1 29.2-10.2Q29.2-11.4 29.2-12.63 29.2-13.85 29.2-15.05L29.2-15.05Q28.35-15 27.45-14.95 26.55-14.9 25.7-14.85L25.7-14.85 25.7-17.05 37-17.05 37-15.4Q35.6-15.4 34.85-14.68 34.1-13.95 33.8-12.93 33.5-11.9 33.45-10.93 33.4-9.95 33.4-9.45L33.4-9.45 33.4-1.8 32.05-1.8Q31.25-1.8 29.85-1.5 28.45-1.2 26.65-0.5L26.65-0.5Q25.1 0.1 23.05 0.45 21 0.8 19.35 0.8ZM52.65 0.8L52.65 0.8Q49.15 0.8 46.3-0.83 43.45-2.45 41.77-5.33 40.1-8.2 40.1-11.9L40.1-11.9Q40.1-15.85 41.75-19 43.4-22.15 46.25-23.98 49.1-25.8 52.65-25.8L52.65-25.8Q56.15-25.8 59-24.13 61.85-22.45 63.55-19.6 65.25-16.75 65.25-13.1L65.25-13.1Q65.25-9.25 63.57-6.08 61.9-2.9 59.05-1.05 56.2 0.8 52.65 0.8ZM53.05-1.2L53.05-1.2Q55.7-1.2 57.25-2.7 58.8-4.2 59.47-6.6 60.15-9 60.15-11.65L60.15-11.65Q60.15-13.9 59.72-16.07 59.3-18.25 58.4-20.03 57.5-21.8 56.07-22.85 54.65-23.9 52.65-23.9L52.65-23.9Q50.05-23.9 48.4-22.4 46.75-20.9 45.97-18.5 45.2-16.1 45.2-13.35L45.2-13.35Q45.2-10.25 46.05-7.48 46.9-4.7 48.65-2.95 50.4-1.2 53.05-1.2ZM81.9 0.8L81.9 0.8Q78.4 0.8 75.55-0.83 72.7-2.45 71.02-5.33 69.35-8.2 69.35-11.9L69.35-11.9Q69.35-15.85 71-19 72.65-22.15 75.5-23.98 78.35-25.8 81.9-25.8L81.9-25.8Q85.4-25.8 88.25-24.13 91.1-22.45 92.8-19.6 94.5-16.75 94.5-13.1L94.5-13.1Q94.5-9.25 92.82-6.08 91.15-2.9 88.3-1.05 85.45 0.8 81.9 0.8ZM82.3-1.2L82.3-1.2Q84.95-1.2 86.5-2.7 88.05-4.2 88.72-6.6 89.4-9 89.4-11.65L89.4-11.65Q89.4-13.9 88.97-16.07 88.55-18.25 87.65-20.03 86.75-21.8 85.32-22.85 83.9-23.9 81.9-23.9L81.9-23.9Q79.3-23.9 77.65-22.4 76-20.9 75.22-18.5 74.45-16.1 74.45-13.35L74.45-13.35Q74.45-10.25 75.3-7.48 76.15-4.7 77.9-2.95 79.65-1.2 82.3-1.2ZM109.44 0.8L109.44 0.8Q106.39 0.8 103.94-0.73 101.49-2.25 100.07-5.1 98.64-7.95 98.64-11.8L98.64-11.8Q98.64-15.9 100.29-19.05 101.94-22.2 104.87-24 107.79-25.8 111.49-25.8L111.49-25.8Q113.14-25.8 114.77-25.38 116.39-24.95 117.34-24.4L117.34-24.4 117.34-31.25Q117.34-32.05 117.37-32.77 117.39-33.5 117.49-34.5L117.49-34.5Q116.59-34.45 115.72-34.4 114.84-34.35 113.94-34.3L113.94-34.3 113.94-36.4Q116.14-36.4 117.34-36.6 118.54-36.8 119.17-37.1 119.79-37.4 120.14-37.75L120.14-37.75 121.59-37.75 121.59-5.3Q121.59-4.5 121.54-3.7 121.49-2.9 121.39-1.9L121.39-1.9Q122.29-1.95 123.17-2 124.04-2.05 124.94-2.1L124.94-2.1 124.94 0 117.79 0Q117.64-0.75 117.57-1.38 117.49-2 117.44-2.6L117.44-2.6Q116.04-1.05 113.99-0.13 111.94 0.8 109.44 0.8ZM111.24-1.65L111.24-1.65Q112.89-1.65 114.57-2.6 116.24-3.55 117.34-4.95L117.34-4.95Q117.29-5.55 117.29-6.23 117.29-6.9 117.29-7.7L117.29-7.7 117.34-22.1Q116.14-23 114.72-23.43 113.29-23.85 111.79-23.85L111.79-23.85Q109.29-23.85 107.44-22.4 105.59-20.95 104.64-18.35 103.69-15.75 103.79-12.25L103.79-12.25Q103.89-9.2 104.77-6.8 105.64-4.4 107.27-3.03 108.89-1.65 111.24-1.65ZM153.59 0L142.34 0 142.34-1.65Q144.24-1.75 144.94-2.53 145.64-3.3 145.71-4.67 145.79-6.05 145.79-7.8L145.79-7.8 145.79-29.4Q145.79-30.4 145.84-31.33 145.89-32.25 145.94-33L145.94-33Q145.04-32.95 144.14-32.9 143.24-32.85 142.34-32.8L142.34-32.8 142.34-35 153.59-35 153.59-33.35Q151.74-33.3 151.01-32.5 150.29-31.7 150.21-30.35 150.14-29 150.14-27.2L150.14-27.2 150.14-18.9 168.04-18.9 168.04-29.4Q168.04-30.4 168.09-31.33 168.14-32.25 168.19-33L168.19-33Q167.29-32.95 166.39-32.9 165.49-32.85 164.59-32.8L164.59-32.8 164.59-35 175.84-35 175.84-33.35Q173.99-33.3 173.26-32.5 172.54-31.7 172.46-30.35 172.39-29 172.39-27.2L172.39-27.2 172.39-5.95Q172.39-4.6 172.36-3.63 172.34-2.65 172.24-2L172.24-2Q173.14-2.05 174.04-2.1 174.94-2.15 175.84-2.2L175.84-2.2 175.84 0 164.59 0 164.59-1.65Q166.49-1.75 167.19-2.53 167.89-3.3 167.96-4.67 168.04-6.05 168.04-7.8L168.04-7.8 168.04-16.9 150.14-16.7 150.14-5.95Q150.14-4.6 150.11-3.63 150.09-2.65 149.99-2L149.99-2Q150.89-2.05 151.79-2.1 152.69-2.15 153.59-2.2L153.59-2.2 153.59 0ZM192.09 0.8L192.09 0.8Q188.59 0.8 185.74-0.83 182.89-2.45 181.21-5.33 179.54-8.2 179.54-11.9L179.54-11.9Q179.54-15.85 181.19-19 182.84-22.15 185.69-23.98 188.54-25.8 192.09-25.8L192.09-25.8Q195.59-25.8 198.44-24.13 201.29-22.45 202.99-19.6 204.69-16.75 204.69-13.1L204.69-13.1Q204.69-9.25 203.01-6.08 201.34-2.9 198.49-1.05 195.64 0.8 192.09 0.8ZM192.49-1.2L192.49-1.2Q195.14-1.2 196.69-2.7 198.24-4.2 198.91-6.6 199.59-9 199.59-11.65L199.59-11.65Q199.59-13.9 199.16-16.07 198.74-18.25 197.84-20.03 196.94-21.8 195.51-22.85 194.09-23.9 192.09-23.9L192.09-23.9Q189.49-23.9 187.84-22.4 186.19-20.9 185.41-18.5 184.64-16.1 184.64-13.35L184.64-13.35Q184.64-10.25 185.49-7.48 186.34-4.7 188.09-2.95 189.84-1.2 192.49-1.2ZM219.48 0.8L219.48 0.8Q216.78 0.8 214.96-0.2 213.13-1.2 212.21-3.6 211.28-6 211.28-10.1L211.28-10.1 211.28-19Q211.28-19.8 211.31-20.6 211.33-21.4 211.48-22.25L211.48-22.25Q210.63-22.2 209.76-22.18 208.88-22.15 208.03-22.1L208.03-22.1 208.03-24.15 209.58-24.15Q211.73-24.15 212.71-24.58 213.68-25 214.23-25.5L214.23-25.5 215.68-25.5 215.68-10.25Q215.68-5.95 216.91-3.83 218.13-1.7 221.08-1.75L221.08-1.75Q222.98-1.8 224.71-2.93 226.43-4.05 227.48-5.6L227.48-5.6 227.48-18.45Q227.48-19.65 227.53-20.53 227.58-21.4 227.73-22.25L227.73-22.25Q226.83-22.2 225.93-22.18 225.03-22.15 224.13-22.1L224.13-22.1 224.13-24.15 225.68-24.15Q227.83-24.15 228.81-24.58 229.78-25 230.33-25.5L230.33-25.5 231.78-25.5 231.73-6.6Q231.73-5.8 231.68-4.35 231.63-2.9 231.53-1.9L231.53-1.9Q232.43-1.95 233.33-2 234.23-2.05 235.13-2.1L235.13-2.1 235.13 0 227.98 0Q227.83-0.85 227.76-1.6 227.68-2.35 227.63-3L227.63-3Q226.08-1.45 223.88-0.33 221.68 0.8 219.48 0.8ZM249.03 0.8L249.03 0.8Q246.53 0.8 244.58 0.13 242.63-0.55 241.38-1.4L241.38-1.4 241.58 0.35 239.48 0.35 239.18-8.25 240.73-8.25Q240.83-6.2 241.88-4.58 242.93-2.95 244.58-2.05 246.23-1.15 248.13-1.15L248.13-1.15Q249.43-1.15 250.68-1.58 251.93-2 252.78-2.88 253.63-3.75 253.63-5.1L253.63-5.1Q253.63-6.5 252.81-7.43 251.98-8.35 250.63-9.05 249.28-9.75 247.73-10.35L247.73-10.35Q246.23-10.95 244.73-11.6 243.23-12.25 241.96-13.15 240.68-14.05 239.93-15.35 239.18-16.65 239.18-18.55L239.18-18.55Q239.18-19.6 239.58-20.85 239.98-22.1 240.93-23.23 241.88-24.35 243.53-25.08 245.18-25.8 247.73-25.8L247.73-25.8Q249.08-25.8 250.73-25.35 252.38-24.9 253.93-23.65L253.93-23.65 253.83-25.55 255.93-25.55 255.93-16.8 254.33-16.8Q254.23-18.55 253.53-20.18 252.83-21.8 251.48-22.88 250.13-23.95 247.98-23.95L247.98-23.95Q245.68-23.95 244.38-22.8 243.08-21.65 243.08-20.15L243.08-20.15Q243.08-18.6 244.06-17.57 245.03-16.55 246.58-15.8 248.13-15.05 249.88-14.35L249.88-14.35Q251.78-13.55 253.58-12.6 255.38-11.65 256.53-10.23 257.68-8.8 257.68-6.55L257.68-6.55Q257.68-4.05 256.41-2.4 255.13-0.75 253.16 0.03 251.18 0.8 249.03 0.8ZM261.93 0L261.93-1.5Q263.48-1.5 264.08-2.27 264.68-3.05 264.78-4.42 264.88-5.8 264.88-7.6L264.88-7.6 264.88-19Q264.88-19.8 264.93-20.53 264.98-21.25 265.08-22.25L265.08-22.25Q264.18-22.2 263.3-22.15 262.43-22.1 261.53-22.05L261.53-22.05 261.53-24.15Q263.73-24.15 264.93-24.35 266.13-24.55 266.75-24.85 267.38-25.15 267.73-25.5L267.73-25.5 269.18-25.5 269.18-5.3Q269.18-4.3 269.15-3.53 269.13-2.75 268.98-1.9L268.98-1.9Q269.78-1.95 270.55-1.98 271.33-2 272.13-2.05L272.13-2.05 272.13 0 261.93 0ZM266.78-30.45L266.78-30.45Q265.73-30.45 264.93-31.3 264.13-32.15 264.13-33.4L264.13-33.4Q264.13-34.65 264.95-35.52 265.78-36.4 266.83-36.4L266.83-36.4Q267.98-36.4 268.75-35.52 269.53-34.65 269.53-33.4L269.53-33.4Q269.53-32.15 268.7-31.3 267.88-30.45 266.78-30.45ZM286.18 0L275.98 0 275.98-1.5Q277.53-1.5 278.13-2.27 278.73-3.05 278.83-4.42 278.93-5.8 278.93-7.6L278.93-7.6 278.98-19Q278.98-19.8 279-20.6 279.03-21.4 279.18-22.25L279.18-22.25Q278.28-22.2 277.4-22.15 276.53-22.1 275.63-22.05L275.63-22.05 275.63-24.15Q277.83-24.15 278.95-24.35 280.08-24.55 280.63-24.85 281.18-25.15 281.53-25.5L281.53-25.5 282.98-25.5Q283.03-25.15 283.05-24.7 283.08-24.25 283.13-23.7 283.18-23.15 283.18-22.45L283.18-22.45Q284.28-23.4 285.6-24.15 286.93-24.9 288.4-25.35 289.88-25.8 291.33-25.8L291.33-25.8Q295.68-25.8 297.68-23.08 299.68-20.35 299.68-14.6L299.68-14.6 299.68-5.3Q299.68-4.3 299.65-3.53 299.63-2.75 299.48-1.9L299.48-1.9Q300.28-1.95 301.05-1.98 301.83-2 302.63-2.05L302.63-2.05 302.63 0 292.43 0 292.43-1.5Q293.98-1.5 294.58-2.27 295.18-3.05 295.28-4.42 295.38-5.8 295.38-7.6L295.38-7.6 295.38-14.6Q295.33-18.9 293.95-21.1 292.58-23.3 289.63-23.25L289.63-23.25Q287.83-23.2 286.1-22.3 284.38-21.4 283.23-20L283.23-20Q283.28-19.6 283.28-19.1 283.28-18.6 283.28-18.05L283.28-18.05 283.23-5.3Q283.23-4.3 283.2-3.53 283.18-2.75 283.03-1.9L283.03-1.9Q283.83-1.95 284.6-1.98 285.38-2 286.18-2.05L286.18-2.05 286.18 0ZM318.37 13.55L318.37 13.55Q313.87 13.55 311.12 12.55 308.37 11.55 307.12 10 305.87 8.45 305.87 6.8L305.87 6.8Q305.87 5.25 306.6 4.08 307.32 2.9 308.4 2.05 309.47 1.2 310.47 0.8L310.47 0.8Q308.87 0.25 307.95-0.68 307.02-1.6 307.02-3.15L307.02-3.15Q307.02-4.9 308.42-6.43 309.82-7.95 312.02-8.3L312.02-8.3Q309.72-9.4 308.35-11.35 306.97-13.3 306.97-15.9L306.97-15.9Q306.97-18.9 308.52-21.13 310.07-23.35 312.5-24.58 314.92-25.8 317.52-25.8L317.52-25.8Q319.17-25.8 320.82-25.33 322.47-24.85 323.87-23.95L323.87-23.95Q324.37-25.35 325.3-26.45 326.22-27.55 327.42-28.18 328.62-28.8 329.92-28.8L329.92-28.8Q331.22-28.8 331.9-28.13 332.57-27.45 332.57-26.3L332.57-26.3Q332.57-25.95 332.37-25.45 332.17-24.95 331.7-24.6 331.22-24.25 330.42-24.25L330.42-24.25Q329.57-24.25 329.02-24.75 328.47-25.25 328.32-26L328.32-26Q327.07-25.8 326.37-24.83 325.67-23.85 325.42-22.7L325.42-22.7Q326.62-21.6 327.35-20.05 328.07-18.5 328.07-16.75L328.07-16.75Q328.07-13.95 326.6-11.75 325.12-9.55 322.72-8.33 320.32-7.1 317.52-7.1L317.52-7.1Q316.57-7.1 315.87-7.23 315.17-7.35 314.17-7.35L314.17-7.35Q312.32-7.35 311.17-6.45 310.02-5.55 310.37-4.3L310.37-4.3Q310.77-3.1 312.82-2.78 314.87-2.45 318.32-2.3L318.32-2.3Q322.17-2.15 324.92-1.4 327.67-0.65 329.15 0.93 330.62 2.5 330.62 5.2L330.62 5.2Q330.62 7.2 329.55 8.78 328.47 10.35 326.7 11.4 324.92 12.45 322.75 13 320.57 13.55 318.37 13.55ZM318.32 11.6L318.32 11.6Q322.62 11.6 325.02 10 327.42 8.4 327.42 6.25L327.42 6.25Q327.42 4.4 326.17 3.43 324.92 2.45 322.77 2.08 320.62 1.7 317.82 1.65L317.82 1.65Q316.47 1.6 315.17 1.53 313.87 1.45 312.67 1.25L312.67 1.25Q311.32 2.15 310.57 3.45 309.82 4.75 309.82 6.2L309.82 6.2Q309.82 8.65 312.15 10.13 314.47 11.6 318.32 11.6ZM317.67-8.9L317.67-8.9Q319.52-8.9 320.75-9.8 321.97-10.7 322.6-12.25 323.22-13.8 323.22-15.75L323.22-15.75Q323.22-17.95 322.57-19.85 321.92-21.75 320.65-22.9 319.37-24.05 317.42-24.05L317.42-24.05Q314.72-24.05 313.25-22.03 311.77-20 311.77-17L311.77-17Q311.77-14.6 312.47-12.78 313.17-10.95 314.5-9.93 315.82-8.9 317.67-8.9ZM337.67 8.95L337.67 8.95 336.32 7.95Q336.87 7.25 337.47 5.95 338.07 4.65 338.45 3.08 338.82 1.5 338.62 0L338.62 0Q338.27 0.15 337.97 0.23 337.67 0.3 337.37 0.3L337.37 0.3Q336.42 0.3 335.75-0.4 335.07-1.1 335.07-2.15L335.07-2.15Q335.07-3.55 335.9-4.3 336.72-5.05 337.82-5.05L337.82-5.05Q339.57-5.05 340.47-3.73 341.37-2.4 341.37-0.5L341.37-0.5Q341.37 0.75 340.9 2.55 340.42 4.35 339.6 6.08 338.77 7.8 337.67 8.95ZM376.92 0.8L376.92 0.8Q371.92 0.8 368.06-1.3 364.21-3.4 362.06-7.35 359.92-11.3 359.92-16.75L359.92-16.75Q359.92-20.3 360.99-23.68 362.06-27.05 364.24-29.8 366.42-32.55 369.69-34.18 372.96-35.8 377.31-35.8L377.31-35.8Q379.12-35.8 380.96-35.48 382.81-35.15 384.54-34.52 386.26-33.9 387.67-33.05L387.67-33.05 387.46-35.45 390.21-35.45 390.21-24 388.42-24Q388.21-27.15 386.74-29.33 385.26-31.5 382.92-32.65 380.56-33.8 377.67-33.8L377.67-33.8Q375.01-33.8 372.69-32.63 370.37-31.45 368.59-29.33 366.81-27.2 365.81-24.3 364.81-21.4 364.81-17.9L364.81-17.9Q364.81-13.2 366.51-9.5 368.21-5.8 371.24-3.7 374.26-1.6 378.21-1.6L378.21-1.6Q379.56-1.6 381.04-1.85 382.51-2.1 383.99-2.68 385.46-3.25 386.76-4.1L386.76-4.1 386.76-10.2Q386.76-11.4 386.76-12.63 386.76-13.85 386.76-15.05L386.76-15.05Q385.92-15 385.01-14.95 384.12-14.9 383.26-14.85L383.26-14.85 383.26-17.05 394.56-17.05 394.56-15.4Q393.17-15.4 392.42-14.68 391.67-13.95 391.37-12.93 391.06-11.9 391.01-10.93 390.96-9.95 390.96-9.45L390.96-9.45 390.96-1.8 389.62-1.8Q388.81-1.8 387.42-1.5 386.01-1.2 384.21-0.5L384.21-0.5Q382.67 0.1 380.62 0.45 378.56 0.8 376.92 0.8ZM410.21 0.8L410.21 0.8Q406.71 0.8 403.86-0.83 401.01-2.45 399.34-5.33 397.66-8.2 397.66-11.9L397.66-11.9Q397.66-15.85 399.31-19 400.96-22.15 403.81-23.98 406.66-25.8 410.21-25.8L410.21-25.8Q413.71-25.8 416.56-24.13 419.41-22.45 421.11-19.6 422.81-16.75 422.81-13.1L422.81-13.1Q422.81-9.25 421.14-6.08 419.46-2.9 416.61-1.05 413.76 0.8 410.21 0.8ZM410.61-1.2L410.61-1.2Q413.26-1.2 414.81-2.7 416.36-4.2 417.04-6.6 417.71-9 417.71-11.65L417.71-11.65Q417.71-13.9 417.29-16.07 416.86-18.25 415.96-20.03 415.06-21.8 413.64-22.85 412.21-23.9 410.21-23.9L410.21-23.9Q407.61-23.9 405.96-22.4 404.31-20.9 403.54-18.5 402.76-16.1 402.76-13.35L402.76-13.35Q402.76-10.25 403.61-7.48 404.46-4.7 406.21-2.95 407.96-1.2 410.61-1.2ZM439.46 0.8L439.46 0.8Q435.96 0.8 433.11-0.83 430.26-2.45 428.59-5.33 426.91-8.2 426.91-11.9L426.91-11.9Q426.91-15.85 428.56-19 430.21-22.15 433.06-23.98 435.91-25.8 439.46-25.8L439.46-25.8Q442.96-25.8 445.81-24.13 448.66-22.45 450.36-19.6 452.06-16.75 452.06-13.1L452.06-13.1Q452.06-9.25 450.38-6.08 448.71-2.9 445.86-1.05 443.01 0.8 439.46 0.8ZM439.86-1.2L439.86-1.2Q442.51-1.2 444.06-2.7 445.61-4.2 446.29-6.6 446.96-9 446.96-11.65L446.96-11.65Q446.96-13.9 446.54-16.07 446.11-18.25 445.21-20.03 444.31-21.8 442.88-22.85 441.46-23.9 439.46-23.9L439.46-23.9Q436.86-23.9 435.21-22.4 433.56-20.9 432.79-18.5 432.01-16.1 432.01-13.35L432.01-13.35Q432.01-10.25 432.86-7.48 433.71-4.7 435.46-2.95 437.21-1.2 439.86-1.2ZM467.01 0.8L467.01 0.8Q463.96 0.8 461.51-0.73 459.06-2.25 457.63-5.1 456.21-7.95 456.21-11.8L456.21-11.8Q456.21-15.9 457.86-19.05 459.51-22.2 462.43-24 465.36-25.8 469.06-25.8L469.06-25.8Q470.71-25.8 472.33-25.38 473.96-24.95 474.91-24.4L474.91-24.4 474.91-31.25Q474.91-32.05 474.93-32.77 474.96-33.5 475.06-34.5L475.06-34.5Q474.16-34.45 473.28-34.4 472.41-34.35 471.51-34.3L471.51-34.3 471.51-36.4Q473.71-36.4 474.91-36.6 476.11-36.8 476.73-37.1 477.36-37.4 477.71-37.75L477.71-37.75 479.16-37.75 479.16-5.3Q479.16-4.5 479.11-3.7 479.06-2.9 478.96-1.9L478.96-1.9Q479.86-1.95 480.73-2 481.61-2.05 482.51-2.1L482.51-2.1 482.51 0 475.36 0Q475.21-0.75 475.13-1.38 475.06-2 475.01-2.6L475.01-2.6Q473.61-1.05 471.56-0.13 469.51 0.8 467.01 0.8ZM468.81-1.65L468.81-1.65Q470.46-1.65 472.13-2.6 473.81-3.55 474.91-4.95L474.91-4.95Q474.86-5.55 474.86-6.23 474.86-6.9 474.86-7.7L474.86-7.7 474.91-22.1Q473.71-23 472.28-23.43 470.86-23.85 469.36-23.85L469.36-23.85Q466.86-23.85 465.01-22.4 463.16-20.95 462.21-18.35 461.26-15.75 461.36-12.25L461.36-12.25Q461.46-9.2 462.33-6.8 463.21-4.4 464.83-3.03 466.46-1.65 468.81-1.65ZM511.15 0L499.9 0 499.9-1.65Q501.8-1.75 502.5-2.53 503.2-3.3 503.28-4.67 503.35-6.05 503.35-7.8L503.35-7.8 503.35-29.4Q503.35-30.4 503.4-31.33 503.45-32.25 503.5-33L503.5-33Q502.6-32.95 501.7-32.9 500.8-32.85 499.9-32.8L499.9-32.8 499.9-35 511.15-35 511.15-33.35Q509.3-33.3 508.58-32.5 507.85-31.7 507.78-30.35 507.7-29 507.7-27.2L507.7-27.2 507.7-18.9 525.6-18.9 525.6-29.4Q525.6-30.4 525.65-31.33 525.7-32.25 525.75-33L525.75-33Q524.85-32.95 523.95-32.9 523.05-32.85 522.15-32.8L522.15-32.8 522.15-35 533.4-35 533.4-33.35Q531.55-33.3 530.83-32.5 530.1-31.7 530.03-30.35 529.95-29 529.95-27.2L529.95-27.2 529.95-5.95Q529.95-4.6 529.93-3.63 529.9-2.65 529.8-2L529.8-2Q530.7-2.05 531.6-2.1 532.5-2.15 533.4-2.2L533.4-2.2 533.4 0 522.15 0 522.15-1.65Q524.05-1.75 524.75-2.53 525.45-3.3 525.53-4.67 525.6-6.05 525.6-7.8L525.6-7.8 525.6-16.9 507.7-16.7 507.7-5.95Q507.7-4.6 507.68-3.63 507.65-2.65 507.55-2L507.55-2Q508.45-2.05 509.35-2.1 510.25-2.15 511.15-2.2L511.15-2.2 511.15 0ZM549.65 0.8L549.65 0.8Q546.15 0.8 543.3-0.83 540.45-2.45 538.77-5.33 537.1-8.2 537.1-11.9L537.1-11.9Q537.1-15.85 538.75-19 540.4-22.15 543.25-23.98 546.1-25.8 549.65-25.8L549.65-25.8Q553.15-25.8 556-24.13 558.85-22.45 560.55-19.6 562.25-16.75 562.25-13.1L562.25-13.1Q562.25-9.25 560.57-6.08 558.9-2.9 556.05-1.05 553.2 0.8 549.65 0.8ZM550.05-1.2L550.05-1.2Q552.7-1.2 554.25-2.7 555.8-4.2 556.47-6.6 557.15-9 557.15-11.65L557.15-11.65Q557.15-13.9 556.72-16.07 556.3-18.25 555.4-20.03 554.5-21.8 553.07-22.85 551.65-23.9 549.65-23.9L549.65-23.9Q547.05-23.9 545.4-22.4 543.75-20.9 542.97-18.5 542.2-16.1 542.2-13.35L542.2-13.35Q542.2-10.25 543.05-7.48 543.9-4.7 545.65-2.95 547.4-1.2 550.05-1.2ZM566 0L566-1.5Q567.55-1.5 568.15-2.27 568.75-3.05 568.85-4.42 568.95-5.8 568.95-7.6L568.95-7.6 568.95-31.25Q568.95-32.05 568.97-32.77 569-33.5 569.1-34.5L569.1-34.5Q568.2-34.45 567.32-34.4 566.45-34.35 565.55-34.3L565.55-34.3 565.55-36.4Q567.75-36.4 568.97-36.6 570.2-36.8 570.82-37.1 571.45-37.4 571.8-37.75L571.8-37.75 573.25-37.75 573.3-5.3Q573.3-4.3 573.25-3.53 573.2-2.75 573.05-1.9L573.05-1.9Q573.85-1.95 574.62-1.98 575.4-2 576.2-2.05L576.2-2.05 576.2 0 566 0ZM580.09 0L580.09-1.5Q581.64-1.5 582.24-2.27 582.84-3.05 582.94-4.42 583.04-5.8 583.04-7.6L583.04-7.6 583.04-19Q583.04-19.8 583.09-20.53 583.14-21.25 583.24-22.25L583.24-22.25Q582.34-22.2 581.47-22.15 580.59-22.1 579.69-22.05L579.69-22.05 579.69-24.15Q581.89-24.15 583.09-24.35 584.29-24.55 584.92-24.85 585.54-25.15 585.89-25.5L585.89-25.5 587.34-25.5 587.34-5.3Q587.34-4.3 587.32-3.53 587.29-2.75 587.14-1.9L587.14-1.9Q587.94-1.95 588.72-1.98 589.49-2 590.29-2.05L590.29-2.05 590.29 0 580.09 0ZM584.94-30.45L584.94-30.45Q583.89-30.45 583.09-31.3 582.29-32.15 582.29-33.4L582.29-33.4Q582.29-34.65 583.12-35.52 583.94-36.4 584.99-36.4L584.99-36.4Q586.14-36.4 586.92-35.52 587.69-34.65 587.69-33.4L587.69-33.4Q587.69-32.15 586.87-31.3 586.04-30.45 584.94-30.45ZM604.84 0.8L604.84 0.8Q601.79 0.8 599.34-0.73 596.89-2.25 595.47-5.1 594.04-7.95 594.04-11.8L594.04-11.8Q594.04-15.9 595.69-19.05 597.34-22.2 600.27-24 603.19-25.8 606.89-25.8L606.89-25.8Q608.54-25.8 610.17-25.38 611.79-24.95 612.74-24.4L612.74-24.4 612.74-31.25Q612.74-32.05 612.77-32.77 612.79-33.5 612.89-34.5L612.89-34.5Q611.99-34.45 611.12-34.4 610.24-34.35 609.34-34.3L609.34-34.3 609.34-36.4Q611.54-36.4 612.74-36.6 613.94-36.8 614.57-37.1 615.19-37.4 615.54-37.75L615.54-37.75 616.99-37.75 616.99-5.3Q616.99-4.5 616.94-3.7 616.89-2.9 616.79-1.9L616.79-1.9Q617.69-1.95 618.57-2 619.44-2.05 620.34-2.1L620.34-2.1 620.34 0 613.19 0Q613.04-0.75 612.97-1.38 612.89-2 612.84-2.6L612.84-2.6Q611.44-1.05 609.39-0.13 607.34 0.8 604.84 0.8ZM606.64-1.65L606.64-1.65Q608.29-1.65 609.97-2.6 611.64-3.55 612.74-4.95L612.74-4.95Q612.69-5.55 612.69-6.23 612.69-6.9 612.69-7.7L612.69-7.7 612.74-22.1Q611.54-23 610.12-23.43 608.69-23.85 607.19-23.85L607.19-23.85Q604.69-23.85 602.84-22.4 600.99-20.95 600.04-18.35 599.09-15.75 599.19-12.25L599.19-12.25Q599.29-9.2 600.17-6.8 601.04-4.4 602.67-3.03 604.29-1.65 606.64-1.65ZM646.39 0L639.24 0Q639.09-0.85 639.04-1.5 638.99-2.15 638.89-2.85L638.89-2.85Q637.19-1.15 635.21-0.18 633.24 0.8 631.04 0.8L631.04 0.8Q627.24 0.8 625.39-0.93 623.54-2.65 623.54-5.15L623.54-5.15Q623.54-7.45 624.96-9.13 626.39-10.8 628.66-11.88 630.94-12.95 633.61-13.48 636.29-14 638.79-13.95L638.79-13.95 638.79-17.05Q638.79-18.8 638.49-20.35 638.19-21.9 637.19-22.9 636.19-23.9 633.99-23.95L633.99-23.95Q632.54-24 631.01-23.4 629.49-22.8 628.79-21.35L628.79-21.35Q629.19-20.95 629.31-20.43 629.44-19.9 629.44-19.45L629.44-19.45Q629.44-18.85 628.94-18.07 628.44-17.3 627.19-17.35L627.19-17.35Q626.14-17.35 625.59-18.07 625.04-18.8 625.04-19.8L625.04-19.8Q625.04-21.5 626.31-22.85 627.59-24.2 629.84-25 632.09-25.8 634.94-25.8L634.94-25.8Q639.14-25.8 641.14-23.58 643.14-21.35 643.09-16.55L643.09-16.55Q643.09-14.7 643.09-12.83 643.09-10.95 643.06-9.08 643.04-7.2 643.04-5.3L643.04-5.3Q643.04-4.5 642.99-3.7 642.94-2.9 642.84-1.9L642.84-1.9Q643.74-1.95 644.61-2 645.49-2.05 646.39-2.1L646.39-2.1 646.39 0ZM638.79-12.25L638.79-12.25Q637.09-12.2 635.21-11.83 633.34-11.45 631.76-10.7 630.19-9.95 629.21-8.72 628.24-7.5 628.29-5.75L628.29-5.75Q628.39-3.9 629.51-2.98 630.64-2.05 632.19-2.05L632.19-2.05Q634.24-2.05 635.76-2.83 637.29-3.6 638.79-5L638.79-5Q638.74-5.55 638.74-6.2 638.74-6.85 638.74-7.55L638.74-7.55Q638.74-7.8 638.76-9.15 638.79-10.5 638.79-12.25ZM653.19 13.55L653.19 13.55Q651.64 13.55 650.54 12.8 649.44 12.05 649.44 10.5L649.44 10.5Q649.44 9.6 650.04 8.85 650.64 8.1 651.59 8.1L651.59 8.1Q652.79 8.05 653.21 8.85 653.64 9.65 653.64 10.25L653.64 10.25Q653.64 10.4 653.64 10.58 653.64 10.75 653.59 10.95L653.59 10.95Q653.74 11.05 654.14 11.05L654.14 11.05Q654.74 11.05 655.44 10.55 656.14 10.05 656.69 9.1L656.69 9.1Q657.34 8 658.21 5.8 659.09 3.6 660.19 0.55L660.19 0.55 652.39-16.15Q651.09-18.95 650.51-20.6 649.94-22.25 649.74-23.05L649.74-23.05 647.34-22.95 647.34-25 657.69-25 657.69-23.5 657.49-23.5Q655.39-23.35 655.19-21.93 654.99-20.5 656.34-17.6L656.34-17.6 662.19-5.05Q663.34-8.25 664.39-11.38 665.44-14.5 666.49-17.6L666.49-17.6Q666.89-18.7 667.31-19.88 667.74-21.05 668.16-21.98 668.59-22.9 668.94-23.15L668.94-23.15 665.49-22.95 665.49-25 673.34-25 673.34-23.5Q671.49-22.8 670.56-21.18 669.64-19.55 668.69-17L668.69-17 662.44 0.45Q660.94 4.65 659.69 7.58 658.44 10.5 656.94 12.03 655.44 13.55 653.19 13.55ZM685.98 0.8L685.98 0.8Q683.48 0.8 681.53 0.13 679.58-0.55 678.33-1.4L678.33-1.4 678.53 0.35 676.43 0.35 676.13-8.25 677.68-8.25Q677.78-6.2 678.83-4.58 679.88-2.95 681.53-2.05 683.18-1.15 685.08-1.15L685.08-1.15Q686.38-1.15 687.63-1.58 688.88-2 689.73-2.88 690.58-3.75 690.58-5.1L690.58-5.1Q690.58-6.5 689.76-7.43 688.93-8.35 687.58-9.05 686.23-9.75 684.68-10.35L684.68-10.35Q683.18-10.95 681.68-11.6 680.18-12.25 678.91-13.15 677.63-14.05 676.88-15.35 676.13-16.65 676.13-18.55L676.13-18.55Q676.13-19.6 676.53-20.85 676.93-22.1 677.88-23.23 678.83-24.35 680.48-25.08 682.13-25.8 684.68-25.8L684.68-25.8Q686.03-25.8 687.68-25.35 689.33-24.9 690.88-23.65L690.88-23.65 690.78-25.55 692.88-25.55 692.88-16.8 691.28-16.8Q691.18-18.55 690.48-20.18 689.78-21.8 688.43-22.88 687.08-23.95 684.93-23.95L684.93-23.95Q682.63-23.95 681.33-22.8 680.03-21.65 680.03-20.15L680.03-20.15Q680.03-18.6 681.01-17.57 681.98-16.55 683.53-15.8 685.08-15.05 686.83-14.35L686.83-14.35Q688.73-13.55 690.53-12.6 692.33-11.65 693.48-10.23 694.63-8.8 694.63-6.55L694.63-6.55Q694.63-4.05 693.36-2.4 692.08-0.75 690.11 0.03 688.13 0.8 685.98 0.8Z" opacity="1" transform="matrix(1,0,0,1,0,0)" fill="#ffc700" class="slogan-text-1" data-fill-palette-color="secondary" id="text-1"></path></svg></g></svg></g></svg></g></svg></g><g transform="matrix(1,0,0,1,59.20909133609185,0)"><svg viewBox="0 0 73.5818173278163 73.5818173278163" height="73.5818173278163" width="73.5818173278163"><g><svg></svg></g><g id="icon-0"><svg viewBox="0 0 73.5818173278163 73.5818173278163" height="73.5818173278163" width="73.5818173278163"><g><path d="M0 36.791c0-20.319 16.472-36.791 36.791-36.791 20.319 0 36.791 16.472 36.791 36.791 0 20.319-16.472 36.791-36.791 36.791-20.319 0-36.791-16.472-36.791-36.791zM36.791 72.047c19.471 0 35.256-15.785 35.256-35.256 0-19.471-15.785-35.256-35.256-35.256-19.471 0-35.256 15.785-35.256 35.256 0 19.471 15.785 35.256 35.256 35.256z" data-fill-palette-color="accent" fill="#ffc700" stroke="transparent"></path></g><g transform="matrix(1,0,0,1,14.621812444689986,20.16364311757014)"><svg viewBox="0 0 44.33819243843632 33.25453109267602" height="33.25453109267602" width="44.33819243843632"><g><svg version="1.1" xmlns="http://www.w3.org/2000/svg" xmlns:xlink="http://www.w3.org/1999/xlink" x="0" y="0" viewBox="0 0 100 75.00200000000001" enable-background="new 0 0 100 75.001" xml:space="preserve" width="44.33819243843632" height="33.25453109267602" class="icon-cg-0" data-fill-palette-color="accent" id="cg-0"><path fill="#ffc700" d="M95.833 54.169h-8.332c-2.3 0-4.168-1.868-4.168-4.167 0-2.304 1.868-4.168 4.168-4.168h8.332c2.301 0 4.167 1.864 4.167 4.168C100 52.301 98.139 54.169 95.833 54.169z" data-fill-palette-color="accent"></path><path fill="#ffc700" d="M79.463 26.43c-1.628 1.627-4.267 1.627-5.893 0-1.623-1.626-1.623-4.265 0-5.893l5.893-5.892c1.626-1.625 4.266-1.625 5.893 0 1.626 1.627 1.626 4.265 0 5.892L79.463 26.43z" data-fill-palette-color="accent"></path><path fill="#ffc700" d="M73.548 58.333H64.42c1.423-2.45 2.247-5.291 2.247-8.33 0-9.206-7.462-16.669-16.667-16.669-9.203 0-16.667 7.463-16.667 16.669 0 3.039 0.825 5.88 2.248 8.33h-9.128c-0.926-2.608-1.455-5.404-1.455-8.33 0-13.808 11.195-25.001 25.001-25.001 13.808 0 25.001 11.191 25.001 25.001C75.001 52.928 74.472 55.724 73.548 58.333z" data-fill-palette-color="accent"></path><path fill="#ffc700" d="M50 16.667c-2.3 0-4.165-1.867-4.165-4.167V4.167C45.835 1.867 47.7 0 50 0c2.299 0 4.167 1.867 4.167 4.167V12.5C54.167 14.802 52.299 16.667 50 16.667z" data-fill-palette-color="accent"></path><path fill="#ffc700" d="M20.538 26.43l-5.892-5.893c-1.627-1.626-1.627-4.265 0-5.892 1.625-1.625 4.265-1.625 5.892 0l5.893 5.892c1.625 1.628 1.625 4.266 0 5.893C24.804 28.057 22.166 28.057 20.538 26.43z" data-fill-palette-color="accent"></path><path fill="#ffc700" d="M16.667 50.002c0 2.299-1.867 4.167-4.165 4.167H4.167c-2.3 0-4.167-1.868-4.167-4.167 0-2.304 1.867-4.168 4.167-4.168h8.334C14.8 45.834 16.667 47.699 16.667 50.002z" data-fill-palette-color="accent"></path><path fill="#ffc700" d="M29.166 66.667h41.668c2.301 0 4.167 1.868 4.167 4.167 0 2.304-1.866 4.168-4.167 4.168H29.166c-2.3 0-4.167-1.864-4.167-4.168C24.999 68.535 26.866 66.667 29.166 66.667z" data-fill-palette-color="accent"></path></svg></g></svg></g></svg></g></svg></g><g></g></svg></g></svg></g></svg></g><defs></defs></svg><rect width="320" height="360" fill="none" stroke="none" visibility="hidden"></rect></g></svg></g></svg>